<svg xmlns="http://www.w3.org/2000/svg" xmlns:xlink="http://www.w3.org/1999/xlink" width="500" zoomAndPan="magnify" viewBox="0 0 375 374.999991" height="500" preserveAspectRatio="xMidYMid meet" version="1.0"><defs><g/></defs><g fill="#23476b" fill-opacity="1"><g transform="translate(7.323068, 196.032787)"><g><path d="M 123.625 0 L 123.625 -35.65625 L 45.28125 -35.65625 L 45.28125 -120.578125 L 123.625 -120.578125 L 123.625 -156.46875 L 6.09375 -156.46875 L 6.09375 0 Z M 123.625 0 "/></g></g></g><g fill="#6686bb" fill-opacity="1"><g transform="translate(122.282493, 196.032787)"><g><path d="M 123.625 0 L 123.625 -95.953125 L 45.28125 -95.953125 L 45.28125 -120.578125 L 123.625 -120.578125 L 123.625 -156.46875 L 6.09375 -156.46875 L 6.09375 -61.46875 L 84.453125 -61.46875 L 84.453125 -35.65625 L 6.09375 -35.65625 L 6.09375 0 Z M 123.625 0 "/></g></g></g><g fill="#7fa2cf" fill-opacity="1"><g transform="translate(238.40851, 196.032787)"><g><path d="M 123.15625 0 L 123.15625 -35.65625 L 45.28125 -35.65625 L 45.28125 -61.46875 L 123.15625 -61.46875 L 123.15625 -95.953125 L 45.28125 -95.953125 L 45.28125 -120.578125 L 123.15625 -120.578125 L 123.15625 -156.46875 L 6.09375 -156.46875 L 6.09375 0 Z M 123.15625 0 "/></g></g></g><g fill="#cf7fc0" fill-opacity="1"><g transform="translate(7.423062, 351.75631)"><g><path d="M 123.625 0 L 123.625 -35.65625 L 45.28125 -35.65625 L 45.28125 -120.578125 L 123.625 -120.578125 L 123.625 -156.46875 L 6.09375 -156.46875 L 6.09375 0 Z M 123.625 0 "/></g></g></g><g fill="#bb66b3" fill-opacity="1"><g transform="translate(122.382486, 351.75631)"><g><path d="M 123.625 0 L 123.625 -95.953125 L 45.28125 -95.953125 L 45.28125 -120.578125 L 123.625 -120.578125 L 123.625 -156.46875 L 6.09375 -156.46875 L 6.09375 -61.46875 L 84.453125 -61.46875 L 84.453125 -35.65625 L 6.09375 -35.65625 L 6.09375 0 Z M 123.625 0 "/></g></g></g><g fill="#6a236b" fill-opacity="1"><g transform="translate(238.508504, 351.75631)"><g><path d="M 123.625 -43.640625 L 123.625 -156.46875 L 6.09375 -156.46875 L 6.09375 0 L 45.28125 0 L 45.28125 -43.640625 Z M 84.453125 -79.296875 L 45.28125 -79.296875 L 45.28125 -120.578125 L 84.453125 -120.578125 Z M 84.453125 -79.296875 "/></g></g></g></svg>